<?xml version="1.0" standalone="no"?>
<!DOCTYPE svg PUBLIC "-//W3C//DTD SVG 20010904//EN"
 "http://www.w3.org/TR/2001/REC-SVG-20010904/DTD/svg10.dtd">
<svg version="1.0" xmlns="http://www.w3.org/2000/svg"
 width="142.000000pt" height="142.000000pt" viewBox="0 0 142.000000 142.000000"
 preserveAspectRatio="xMidYMid meet">
<metadata>
Created by potrace 1.14, written by Peter Selinger 2001-2017
</metadata>
<g transform="translate(0.000000,142.000000) scale(0.100000,-0.100000)"
fill="#000000" stroke="none">
<path d="M102 1403 c-43 -21 -80 -70 -87 -114 -4 -30 -4 -31 4 -7 23 68 63
108 129 128 21 6 22 8 7 9 -11 0 -35 -7 -53 -16z"/>
<path d="M1272 1411 c68 -23 108 -63 128 -129 6 -18 9 -21 9 -9 3 57 -67 133
-130 142 -30 4 -31 4 -7 -4z"/>
<path d="M255 1231 c-11 -5 -33 -23 -50 -41 -27 -29 -30 -37 -30 -100 0 -67 1
-71 38 -107 37 -38 38 -38 117 -38 79 0 80 0 117 38 37 36 38 40 38 107 0 67
-1 71 -37 107 -35 35 -42 38 -105 40 -38 2 -77 -1 -88 -6z"/>
<path d="M1015 1231 c-11 -5 -33 -23 -50 -41 -27 -29 -30 -37 -30 -100 0 -67
1 -71 38 -107 37 -38 38 -38 117 -38 79 0 80 0 117 38 37 36 38 40 38 107 0
67 -1 71 -37 107 -35 35 -42 38 -105 40 -38 2 -77 -1 -88 -6z"/>
<path d="M622 840 c-48 -30 -72 -75 -72 -140 0 -65 24 -110 72 -140 45 -27
131 -27 176 0 48 30 72 75 72 140 0 65 -24 110 -72 140 -45 27 -131 27 -176 0z"/>
<path d="M242 460 c-48 -30 -72 -75 -72 -140 0 -100 60 -160 160 -160 100 0
160 60 160 160 0 65 -24 110 -72 140 -45 27 -131 27 -176 0z"/>
<path d="M1002 460 c-48 -30 -72 -75 -72 -140 0 -100 60 -160 160 -160 100 0
160 60 160 160 0 65 -24 110 -72 140 -45 27 -131 27 -176 0z"/>
<path d="M15 131 c9 -63 85 -133 142 -130 12 0 9 3 -9 9 -66 20 -106 60 -129
128 -8 24 -8 23 -4 -7z"/>
<path d="M1401 146 c-3 -53 -60 -114 -129 -137 -24 -8 -23 -8 7 -4 64 10 140
95 128 143 -4 15 -5 15 -6 -2z"/>
</g>
</svg>
